<svg id="Слой_1" data-name="Слой 1" xmlns="http://www.w3.org/2000/svg" viewBox="0 0 621.81 403.34"><defs><style>.cls-1,.cls-3,.cls-4,.cls-5{fill:none;}.cls-1,.cls-5{stroke:#bababa;stroke-width:2px;}.cls-1,.cls-3,.cls-4,.cls-5,.cls-7{stroke-miterlimit:10;}.cls-2{fill:#bababa;}.cls-3{stroke:#db1616;}.cls-3,.cls-4,.cls-7{stroke-width:4px;}.cls-4,.cls-7{stroke:#3694f2;}.cls-5{stroke-dasharray:11.9 11.9;}.cls-6{opacity:0.76;}.cls-7{fill:#fff;}.cls-8{fill:#3694f2;}</style></defs><title>graph</title><polyline class="cls-1" points="604.09 373.67 5.81 373.67 5.81 18.72"/><polygon class="cls-2" points="600.13 367.86 621.81 373.67 600.13 379.48 600.13 367.86"/><polygon class="cls-2" points="11.62 22.68 5.81 1 0 22.68 11.62 22.68"/><path class="cls-3" d="M45.33,410.67C59,410.67,245,73,284,73H422c39,0,144,302,235,302" transform="translate(-37.19 -38)"/><path class="cls-4" d="M41,407c25.66,4,59.82,4.79,90-13,87-51.27,48.75-201.69,116-231,57.43-25,106.88,81.42,184,56,56.9-18.75,77.27-143,197-156a132.49,132.49,0,0,1,29,0" transform="translate(-37.19 -38)"/><line class="cls-1" x1="241.81" y1="373" x2="241.81" y2="367"/><line class="cls-5" x1="241.81" y1="355.1" x2="241.81" y2="27.95"/><line class="cls-1" x1="241.81" y1="22" x2="241.81" y2="16"/><line class="cls-1" x1="385.81" y1="373" x2="385.81" y2="367"/><line class="cls-5" x1="385.81" y1="355.1" x2="385.81" y2="27.95"/><line class="cls-1" x1="385.81" y1="22" x2="385.81" y2="16"/><circle class="cls-1" cx="241.81" cy="8" r="7"/><circle class="cls-1" cx="385.81" cy="8" r="7"/><line class="cls-1" x1="588.81" y1="373" x2="588.81" y2="367"/><line class="cls-5" x1="588.81" y1="355.1" x2="588.81" y2="27.95"/><line class="cls-1" x1="588.81" y1="22" x2="588.81" y2="16"/><g class="cls-6"><path d="M62.39,43.28A19.08,19.08,0,0,1,66,43a6.31,6.31,0,0,1,4.19,1.11,3.2,3.2,0,0,1,1.27,2.69,3.62,3.62,0,0,1-2.58,3.35v0A3.93,3.93,0,0,1,72,54,4.12,4.12,0,0,1,70.72,57c-1.06,1-2.79,1.43-5.28,1.43a23,23,0,0,1-3.06-.18Zm2,6.25h1.79c2.08,0,3.31-1.09,3.31-2.56,0-1.79-1.36-2.49-3.35-2.49a8.45,8.45,0,0,0-1.74.14Zm0,7.31a10.53,10.53,0,0,0,1.65.09c2,0,3.92-.75,3.92-3S68.14,51,66,51H64.36Z" transform="translate(-37.19 -38)"/><path d="M82.59,58.34h-2v-4.6H79.14a2.59,2.59,0,0,0-1.83.61c-.81.66-1.11,2-1.54,3.08a6.69,6.69,0,0,1-.45.91H73.19a7.14,7.14,0,0,0,.68-1.25c.48-1.06.75-2.49,1.72-3.31a2.61,2.61,0,0,1,1.25-.63v-.07c-1.43-.16-2.9-1-2.9-2.72A2.64,2.64,0,0,1,75.38,48a7.67,7.67,0,0,1,3.67-.75,30.51,30.51,0,0,1,3.53.23Zm-2-9.65A11.13,11.13,0,0,0,79,48.58c-1.36,0-3,.39-3,1.9s1.74,1.9,2.92,1.9h1.7Z" transform="translate(-37.19 -38)"/><path d="M86.73,52h1c1.68,0,2.81-.77,2.81-1.79s-.88-1.58-2.13-1.58a5.29,5.29,0,0,0-2.65.77l-.5-1.22a7,7,0,0,1,3.65-1c1.68,0,3.71.75,3.71,2.88a2.79,2.79,0,0,1-2.47,2.49v0c1.63.14,3,1.13,3,2.74,0,2.38-2.42,3.26-4.73,3.26a7.51,7.51,0,0,1-3.56-.88l.52-1.34a6.32,6.32,0,0,0,2.9.75c1.65,0,2.69-.79,2.69-1.88,0-1.47-1.54-1.88-3.19-1.88h-1Z" transform="translate(-37.19 -38)"/><path d="M97.55,47.38v4.76H98l4.12-4.76h2.42l-4.78,5c1.77.18,2.83,1.36,3.69,3.33a23.18,23.18,0,0,0,1.18,2.67h-2.08a14.58,14.58,0,0,1-1-2.24c-.75-1.77-1.77-2.58-3.62-2.58h-.38v4.82h-2v-11Z" transform="translate(-37.19 -38)"/><path d="M116.21,52.77c0,4.05-2.81,5.82-5.46,5.82-3,0-5.25-2.17-5.25-5.64,0-3.67,2.4-5.82,5.43-5.82S116.21,49.42,116.21,52.77Zm-8.7.11c0,2.4,1.38,4.21,3.33,4.21s3.33-1.79,3.33-4.26c0-1.86-.93-4.21-3.28-4.21S107.52,50.8,107.52,52.88Z" transform="translate(-37.19 -38)"/><path d="M126.54,57.93a7.34,7.34,0,0,1-3.15.63A5.21,5.21,0,0,1,117.93,53a5.57,5.57,0,0,1,5.89-5.82,6.66,6.66,0,0,1,2.76.57l-.45,1.54a4.62,4.62,0,0,0-2.31-.52c-2.51,0-3.87,1.86-3.87,4.14a3.76,3.76,0,0,0,3.8,4.1,5.65,5.65,0,0,0,2.45-.54Z" transform="translate(-37.19 -38)"/><path d="M136.63,47.38V49h-3.42v9.37h-2V49h-3.42V47.38Z" transform="translate(-37.19 -38)"/><path d="M140.3,47.38v3.71a11.07,11.07,0,0,1,1.81-.11c2.47,0,5.07.77,5.07,3.69A3.1,3.1,0,0,1,146,57.19a7.61,7.61,0,0,1-4.76,1.27,27.06,27.06,0,0,1-2.94-.16V47.38Zm0,9.58a11.48,11.48,0,0,0,1.47.09c1.49,0,3.42-.5,3.42-2.33s-2-2.31-3.46-2.31a9.29,9.29,0,0,0-1.43.11Z" transform="translate(-37.19 -38)"/></g><g class="cls-6"><path d="M512.29,422.75h-4.64v-1.68h11.3v1.68h-4.67v13.59h-2Z" transform="translate(-37.19 -38)"/><path d="M519.6,431.22a3.51,3.51,0,0,0,3.76,3.8,7.22,7.22,0,0,0,3-.57l.34,1.43a8.87,8.87,0,0,1-3.65.68c-3.37,0-5.39-2.22-5.39-5.53s1.95-5.91,5.14-5.91c3.58,0,4.53,3.15,4.53,5.16a7.36,7.36,0,0,1-.07.93Zm5.84-1.43c0-1.27-.52-3.24-2.76-3.24-2,0-2.9,1.86-3.06,3.24Z" transform="translate(-37.19 -38)"/><path d="M529.95,425.38h2.45l2,5.53c.27.82.75,2.15,1,3h0c.25-.82.86-2.56,1.29-3.76l1.77-4.78H541l.77,11h-1.9l-.25-5.23c-.07-1.18-.16-2.58-.2-3.92h-.07c-.29,1-.59,1.88-1.2,3.55L536,436.27h-1.45l-1.95-5.41c-.34-1-.82-2.63-1.09-3.64h-.09c0,1.29-.11,2.74-.18,3.94l-.27,5.19h-1.83Z" transform="translate(-37.19 -38)"/><path d="M553.32,425.38v11h-2V427h-5.09v9.38h-2v-11Z" transform="translate(-37.19 -38)"/><path d="M557.66,431.22a3.51,3.51,0,0,0,3.76,3.8,7.22,7.22,0,0,0,3-.57l.34,1.43a8.87,8.87,0,0,1-3.65.68c-3.37,0-5.39-2.22-5.39-5.53s1.95-5.91,5.14-5.91c3.58,0,4.53,3.15,4.53,5.16a7.36,7.36,0,0,1-.07.93Zm5.84-1.43c0-1.27-.52-3.24-2.76-3.24-2,0-2.9,1.86-3.06,3.24Z" transform="translate(-37.19 -38)"/><path d="M567.9,429c0-1.4,0-2.54-.09-3.58h1.79l.09,1.88h0a4.31,4.31,0,0,1,3.89-2.13c2.65,0,4.64,2.24,4.64,5.57,0,3.94-2.4,5.89-5,5.89a3.84,3.84,0,0,1-3.37-1.72h0v6h-2Zm2,2.92a4.52,4.52,0,0,0,.09.82,3.08,3.08,0,0,0,3,2.33c2.11,0,3.33-1.72,3.33-4.23,0-2.2-1.15-4.08-3.26-4.08a3.18,3.18,0,0,0-3,2.47,3.25,3.25,0,0,0-.14.82Z" transform="translate(-37.19 -38)"/><path d="M586.85,436.34l-.16-1.38h-.07a4.08,4.08,0,0,1-3.35,1.63,3.12,3.12,0,0,1-3.35-3.15c0-2.65,2.35-4.1,6.59-4.08v-.23A2.26,2.26,0,0,0,584,426.6a5.46,5.46,0,0,0-2.85.81l-.45-1.31a6.8,6.8,0,0,1,3.6-1c3.35,0,4.17,2.29,4.17,4.48v4.1a15.45,15.45,0,0,0,.18,2.63Zm-.29-5.59c-2.17,0-4.64.34-4.64,2.47a1.76,1.76,0,0,0,1.88,1.9,2.73,2.73,0,0,0,2.65-1.83,2.1,2.1,0,0,0,.11-.63Z" transform="translate(-37.19 -38)"/><path d="M598.94,425.38V427h-3.42v9.38h-2V427h-3.42v-1.58Z" transform="translate(-37.19 -38)"/><path d="M601.88,425.38l2.4,6.48c.25.72.52,1.58.7,2.24h0c.2-.66.43-1.49.7-2.29l2.17-6.43H610l-3,7.81c-1.43,3.76-2.4,5.68-3.76,6.86a5.39,5.39,0,0,1-2.45,1.29l-.5-1.68a5.26,5.26,0,0,0,1.74-1,6.06,6.06,0,0,0,1.68-2.22,1.42,1.42,0,0,0,.16-.48,1.73,1.73,0,0,0-.14-.52l-4.05-10.1Z" transform="translate(-37.19 -38)"/><path d="M611.82,429c0-1.4,0-2.54-.09-3.58h1.79l.09,1.88h0a4.31,4.31,0,0,1,3.89-2.13c2.65,0,4.64,2.24,4.64,5.57,0,3.94-2.4,5.89-5,5.89a3.84,3.84,0,0,1-3.37-1.72h0v6h-2Zm2,2.92a4.43,4.43,0,0,0,.09.82,3.07,3.07,0,0,0,3,2.33c2.11,0,3.33-1.72,3.33-4.23,0-2.2-1.16-4.08-3.26-4.08a3.45,3.45,0,0,0-3.15,3.28Z" transform="translate(-37.19 -38)"/><path d="M630.78,436.34l-.16-1.38h-.07a4.09,4.09,0,0,1-3.35,1.63,3.12,3.12,0,0,1-3.35-3.15c0-2.65,2.36-4.1,6.59-4.08v-.23a2.26,2.26,0,0,0-2.49-2.54,5.46,5.46,0,0,0-2.85.81l-.45-1.31a6.8,6.8,0,0,1,3.6-1c3.35,0,4.17,2.29,4.17,4.48v4.1a15.44,15.44,0,0,0,.18,2.63Zm-.29-5.59c-2.17,0-4.64.34-4.64,2.47a1.76,1.76,0,0,0,1.88,1.9,2.73,2.73,0,0,0,2.65-1.83,2.07,2.07,0,0,0,.11-.63Z" transform="translate(-37.19 -38)"/></g><circle class="cls-7" cx="88.81" cy="357.5" r="7"/><circle class="cls-7" cx="211.81" cy="126" r="7"/><circle class="cls-7" cx="387.81" cy="182" r="7"/><circle class="cls-7" cx="588.81" cy="25" r="7"/><path class="cls-8" d="M122.51,353.41h4.81l9.58,24.92H132L130,373.2H119.85l-2,5.13H112.9Zm2.43,6.61-3.34,8.55h6.67Z" transform="translate(-37.19 -38)"/><path class="cls-8" d="M244.9,208.33V183.41h3.92a20.34,20.34,0,0,1,5,.44,6.68,6.68,0,0,1,3.56,2.2,5.79,5.79,0,0,1,1.32,3.79,5.53,5.53,0,0,1-.6,2.58,6.58,6.58,0,0,1-2,2.18,7.8,7.8,0,0,1,3.32,2.67,6.75,6.75,0,0,1,1.05,3.79,7.05,7.05,0,0,1-1.09,3.83,6.93,6.93,0,0,1-2.8,2.58,10.75,10.75,0,0,1-4.73.86Zm4.74-20.4v5.25h1a3.86,3.86,0,0,0,2.58-.73,2.49,2.49,0,0,0,.84-2,2.32,2.32,0,0,0-.8-1.85,3.66,3.66,0,0,0-2.43-.69Zm0,9.49v6.39h1.19q3,0,4-.75a2.51,2.51,0,0,0,1-2.17,3,3,0,0,0-1.21-2.54,6.66,6.66,0,0,0-4-.93Z" transform="translate(-37.19 -38)"/><path class="cls-8" d="M440.81,243.79,437.49,247a10.27,10.27,0,0,0-7.62-3.58,8.35,8.35,0,0,0-8.46,8.46,8.89,8.89,0,0,0,1.08,4.43,7.76,7.76,0,0,0,3.06,3,8.89,8.89,0,0,0,4.4,1.1,9.06,9.06,0,0,0,3.77-.77,13.53,13.53,0,0,0,3.76-2.81l3.22,3.36a17.66,17.66,0,0,1-5.22,3.74,14.25,14.25,0,0,1-5.61,1,12.91,12.91,0,0,1-9.51-3.68,12.75,12.75,0,0,1-3.7-9.44,12.93,12.93,0,0,1,1.69-6.62,12.53,12.53,0,0,1,4.83-4.66,13.62,13.62,0,0,1,6.77-1.76,14.37,14.37,0,0,1,10.86,5Z" transform="translate(-37.19 -38)"/><path class="cls-8" d="M615.92,81.41h5.62q5.43,0,8.07,1.35A10.52,10.52,0,0,1,634,87.14a15.34,15.34,0,0,1,.75,12.37,11,11,0,0,1-2.64,4,9.34,9.34,0,0,1-3.65,2.2,26,26,0,0,1-6.8.61h-5.7ZM620.63,86v15.72h2.2a11,11,0,0,0,4.72-.75,5.66,5.66,0,0,0,2.4-2.51,9.21,9.21,0,0,0,.93-4.34A8.25,8.25,0,0,0,628.66,88q-2-2-6.42-2Z" transform="translate(-37.19 -38)"/></svg>